<svg width="512" height="512" viewBox="0 0 512 512" fill="none" xmlns="http://www.w3.org/2000/svg">
<g clip-path="url(#clip0_193_12460)">
<path d="M86.3931 234.466H65.9824C54.3941 234.466 45 243.837 45 255.398V255.606C45 267.166 54.3941 276.538 65.9824 276.538H86.3931C97.9814 276.538 107.376 267.166 107.376 255.606V255.398C107.376 243.837 97.9814 234.466 86.3931 234.466Z" fill="#590EB7"/>
<path d="M188.121 234.466H145.013C133.424 234.466 124.03 243.837 124.03 255.398V255.606C124.03 267.166 133.424 276.538 145.013 276.538H188.121C199.709 276.538 209.103 267.166 209.103 255.606V255.398C209.103 243.837 199.709 234.466 188.121 234.466Z" fill="#590EB7"/>
<path d="M392.851 436.932H240.247C228.602 436.932 219.162 446.349 219.162 457.966V457.97C219.162 469.586 228.602 479.004 240.247 479.004H392.851C404.496 479.004 413.936 469.586 413.936 457.97V457.966C413.936 446.349 404.496 436.932 392.851 436.932Z" fill="#590EB7"/>
<path d="M181.422 436.932H164.592C152.947 436.932 143.507 446.349 143.507 457.966V457.97C143.507 469.586 152.947 479.004 164.592 479.004H181.422C193.067 479.004 202.507 469.586 202.507 457.97V457.966C202.507 446.349 193.067 436.932 181.422 436.932Z" fill="#590EB7"/>
<path d="M248.034 369.443H112.458C100.87 369.443 91.4757 378.815 91.4757 390.375V390.583C91.4757 402.144 100.87 411.515 112.458 411.515H248.034C259.622 411.515 269.016 402.144 269.016 390.583V390.375C269.016 378.815 259.622 369.443 248.034 369.443Z" fill="#590EB7"/>
<path d="M135.606 301.955H81.3436C69.7553 301.955 60.3612 311.326 60.3612 322.886V323.095C60.3612 334.655 69.7553 344.026 81.3436 344.026H135.606C147.194 344.026 156.589 334.655 156.589 323.095V322.886C156.589 311.326 147.194 301.955 135.606 301.955Z" fill="#590EB7"/>
<path d="M213.039 301.955H194.222C182.634 301.955 173.24 311.326 173.24 322.886V323.095C173.24 334.655 182.634 344.026 194.222 344.026H213.039C224.627 344.026 234.021 334.655 234.021 323.095V322.886C234.021 311.326 224.627 301.955 213.039 301.955Z" fill="#590EB7"/>
<path d="M118.951 99.4923H112.458C100.87 99.4923 91.4757 108.864 91.4757 120.424V120.632C91.4757 132.193 100.87 141.564 112.458 141.564H118.951C130.54 141.564 139.934 132.193 139.934 120.632V120.424C139.934 108.864 130.54 99.4923 118.951 99.4923Z" fill="#590EB7"/>
<path d="M253.549 99.4923H177.567C165.979 99.4923 156.585 108.864 156.585 120.424V120.632C156.585 132.193 165.979 141.564 177.567 141.564H253.549C265.137 141.564 274.531 132.193 274.531 120.632V120.424C274.531 108.864 265.137 99.4923 253.549 99.4923Z" fill="#590EB7"/>
<path d="M444.985 99.4923H312.168C300.58 99.4923 291.186 108.864 291.186 120.424V120.632C291.186 132.193 300.58 141.564 312.168 141.564H444.985C456.573 141.564 465.967 132.193 465.967 120.632V120.424C465.967 108.864 456.573 99.4923 444.985 99.4923Z" fill="#590EB7"/>
<path d="M213.039 166.981H81.3436C69.7553 166.981 60.3612 176.352 60.3612 187.913V188.121C60.3612 199.681 69.7553 209.053 81.3436 209.053H213.039C224.627 209.053 234.021 199.681 234.021 188.121V187.913C234.021 176.352 224.627 166.981 213.039 166.981Z" fill="#590EB7"/>
<path d="M310.545 32H164.489C152.901 32 143.507 41.3714 143.507 52.9316V53.14C143.507 64.7002 152.901 74.0717 164.489 74.0717H310.545C322.133 74.0717 331.527 64.7002 331.527 53.14V52.9316C331.527 41.3714 322.133 32 310.545 32Z" fill="#590EB7"/>
<path d="M392.954 32H369.161C357.572 32 348.178 41.3714 348.178 52.9316V53.14C348.178 64.7002 357.572 74.0717 369.161 74.0717H392.954C404.542 74.0717 413.936 64.7002 413.936 53.14V52.9316C413.936 41.3714 404.542 32 392.954 32Z" fill="#590EB7"/>
<path d="M370.531 369.443H306.653C295.066 369.443 285.671 378.816 285.671 390.375V390.58C285.671 402.138 295.066 411.511 306.653 411.511H370.531C382.177 411.511 391.616 402.095 391.616 390.477C391.616 378.86 382.177 369.443 370.531 369.443Z" fill="#590EB7"/>
<path d="M445.018 369.443H429.356C417.71 369.443 408.271 378.86 408.271 390.477C408.271 402.095 417.71 411.511 429.356 411.511H445.018C456.604 411.511 466 402.138 466 390.58V390.375C466 378.816 456.604 369.443 445.018 369.443Z" fill="#590EB7"/>
</g>
<defs>
<clipPath id="clip0_193_12460">
<rect width="421" height="447" fill="white" transform="translate(45 32)"/>
</clipPath>
</defs>
</svg>
